<?xml version="1.0" encoding="UTF-8" standalone="no"?>
<svg
   xmlns:dc="http://purl.org/dc/elements/1.1/"
   xmlns:cc="http://creativecommons.org/ns#"
   xmlns:rdf="http://www.w3.org/1999/02/22-rdf-syntax-ns#"
   xmlns:svg="http://www.w3.org/2000/svg"
   xmlns="http://www.w3.org/2000/svg"
   xmlns:xlink="http://www.w3.org/1999/xlink"
   version="1.1"
   id="svg2"
   viewBox="0 0 600.00001 338.00001"
   height="338"
   width="600">
  <defs
     id="defs4">
    <linearGradient
       id="linearGradient3379-4">
      <stop
         id="stop4191"
         offset="0"
         style="stop-color:#00ffff;stop-opacity:1" />
      <stop
         id="stop4193"
         offset="1"
         style="stop-color:#0000ff;stop-opacity:1" />
    </linearGradient>
    <radialGradient
       gradientUnits="userSpaceOnUse"
       gradientTransform="matrix(2.3914739,-0.14275924,0.04231906,0.70892137,-343.34371,808.79432)"
       r="306.34839"
       fy="264.22034"
       fx="221.91891"
       cy="264.22034"
       cx="221.91891"
       id="radialGradient4197"
       xlink:href="#linearGradient3379-4" />
  </defs>
  <metadata
     id="metadata7">
    <rdf:RDF>
      <cc:Work
         rdf:about="">
        <dc:format>image/svg+xml</dc:format>
        <dc:type
           rdf:resource="http://purl.org/dc/dcmitype/StillImage" />
        <dc:title></dc:title>
      </cc:Work>
    </rdf:RDF>
  </metadata>
  <g
     transform="translate(0,-714.36216)"
     id="layer1">
    <path
       id="path3336"
       d="M 362.4043,827.50669 A 170.76902,446.26578 77.816015 0 0 151.16406,847.16489 170.76902,446.26578 77.816015 0 0 -1.4414062,887.92466 L 471.90234,839.18052 A 170.76902,446.26578 77.816015 0 0 362.4043,827.50669 Z M 518.99414,852.72154 -10,907.1981 l 0,11.44922 576.9082,-40.06055 A 170.76902,446.26578 77.816015 0 0 518.99414,852.72154 Z M 583.60156,894.60239 -10,935.81919 -10,951.05161 598.46289,923.7606 A 170.76902,446.26578 77.816015 0 0 583.60156,894.60239 Z M 600.67188,937.96177 -10,965.35239 l 0,6.81446 605.46484,-5.96094 a 170.76902,446.26578 77.816015 0 0 5.20704,-28.24414 z M 590.88086,976.38755 -10,982.30357 l 0,7.8789 577.80078,19.90623 a 170.76902,446.26578 77.816015 0 0 23.08008,-33.70115 z M -10,997.329 l 0,57.748 528.09961,0 A 170.76902,446.26578 77.816015 0 0 561.75,1017.0282 L -10,997.329 Z"
       style="opacity:1;fill:url(#radialGradient4197);fill-opacity:1;fill-rule:evenodd;stroke:#000000;stroke-width:2.023;stroke-linecap:butt;stroke-linejoin:miter;stroke-miterlimit:4;stroke-dasharray:none;stroke-opacity:1" />
    <text
       id="text4383"
       y="969.14801"
       x="40.245674"
       style="font-style:normal;font-variant:normal;font-weight:normal;font-stretch:normal;font-size:245.28675842px;line-height:138.99999857%;font-family:'Segoe Script';-inkscape-font-specification:'Segoe Script';letter-spacing:0px;word-spacing:0px;fill:#2cd300;fill-opacity:1;stroke:none;stroke-width:1px;stroke-linecap:butt;stroke-linejoin:miter;stroke-opacity:1"
       xml:space="preserve"><tspan
         style="font-style:normal;font-variant:normal;font-weight:normal;font-stretch:normal;font-family:'Sitka Subheading';-inkscape-font-specification:'Sitka Subheading'"
         y="969.14801"
         x="40.245674"
         id="tspan4385">G</tspan></text>
    <text
       id="text4387"
       y="959.80365"
       x="172.62267"
       style="font-style:normal;font-variant:normal;font-weight:normal;font-stretch:normal;font-size:245.28675842px;line-height:125%;font-family:'Sitka Subheading';-inkscape-font-specification:'Sitka Subheading';letter-spacing:0px;word-spacing:0px;fill:#ff0000;fill-opacity:1;stroke:none;stroke-width:1px;stroke-linecap:butt;stroke-linejoin:miter;stroke-opacity:1"
       xml:space="preserve"><tspan
         y="959.80365"
         x="172.62267"
         id="tspan4389">2</tspan></text>
  </g>
</svg>
