<?xml version="1.0" standalone="no"?>
<!DOCTYPE svg PUBLIC "-//W3C//DTD SVG 20010904//EN"
 "http://www.w3.org/TR/2001/REC-SVG-20010904/DTD/svg10.dtd">
<svg version="1.0" xmlns="http://www.w3.org/2000/svg"
 width="1065.000000pt" height="1065.000000pt" viewBox="0 0 1065.000000 1065.000000"
 preserveAspectRatio="xMidYMid meet">
<metadata>
Created by potrace 1.11, written by Peter Selinger 2001-2013
</metadata>
<g transform="translate(0.000000,1065.000000) scale(0.100000,-0.100000)"
fill="#000000" stroke="none">
<path d="M4919 10416 c-2 -2 -58 -7 -124 -11 -66 -4 -122 -8 -125 -10 -3 -1
-39 -6 -80 -9 -41 -4 -84 -9 -95 -11 -11 -3 -40 -7 -65 -10 -44 -5 -66 -8
-140 -21 -19 -4 -44 -8 -55 -10 -82 -13 -239 -48 -365 -80 -691 -180 -1365
-523 -1963 -1001 -67 -54 -124 -100 -127 -103 -3 -3 -23 -20 -45 -39 -315
-267 -650 -621 -881 -931 -118 -159 -294 -426 -294 -447 0 -3 -6 -14 -14 -22
-20 -23 -176 -331 -215 -426 -18 -44 -39 -93 -46 -110 -16 -36 -54 -141 -88
-246 -72 -214 -127 -458 -162 -719 -3 -25 -8 -58 -10 -75 -20 -144 -27 -621
-12 -775 9 -89 36 -278 43 -302 6 -19 11 -44 24 -113 29 -145 104 -354 199
-550 266 -547 740 -996 1290 -1220 158 -65 348 -123 455 -139 21 -4 41 -8 45
-10 4 -3 34 -8 66 -11 33 -4 62 -9 65 -10 5 -3 60 -8 205 -20 81 -7 366 -7
420 0 66 8 261 35 285 40 118 23 394 107 477 145 24 11 46 20 49 20 3 0 67 30
143 66 241 118 453 255 697 450 l151 121 -44 -111 c-25 -61 -51 -124 -58 -141
-7 -16 -25 -59 -40 -95 -33 -79 -45 -108 -79 -183 -14 -32 -26 -59 -26 -62 0
-2 -16 -38 -35 -79 -19 -42 -35 -78 -35 -80 0 -21 -340 -700 -371 -741 -4 -5
-22 -37 -40 -70 -45 -82 -160 -267 -253 -403 -62 -93 -74 -116 -66 -132 5 -10
19 -21 30 -25 18 -6 148 0 210 10 14 2 59 6 100 10 66 5 130 14 235 31 254 41
457 99 600 172 67 34 157 99 181 132 7 8 24 29 38 45 44 50 146 262 216 445
58 154 69 184 115 320 73 216 295 957 320 1070 3 12 120 443 215 795 12 44 34
127 50 185 15 58 44 164 63 235 70 256 198 730 202 749 3 11 20 76 39 145 32
115 99 363 131 486 8 28 35 127 60 220 26 94 47 176 47 183 3 35 288 278 464
395 195 129 451 251 614 293 264 68 389 85 600 85 285 0 510 -44 674 -133 181
-99 330 -284 376 -467 22 -89 29 -117 35 -151 11 -53 15 -377 5 -440 -4 -30
-11 -75 -15 -100 -20 -137 -97 -402 -173 -590 -141 -352 -403 -806 -706 -1225
-149 -206 -391 -517 -510 -656 -17 -19 -53 -62 -81 -94 -27 -33 -86 -100 -130
-150 -44 -49 -93 -105 -110 -124 -189 -215 -784 -807 -975 -971 -14 -12 -38
-34 -55 -48 -16 -15 -79 -70 -140 -122 -60 -52 -112 -97 -115 -100 -8 -9 -319
-260 -395 -320 -38 -30 -72 -57 -75 -60 -30 -31 -497 -368 -729 -525 -111 -75
-201 -139 -202 -143 0 -4 -2 -16 -4 -27 -3 -11 -7 -46 -10 -78 -4 -32 -9 -68
-12 -80 -2 -12 -6 -105 -9 -207 -4 -204 5 -269 54 -369 29 -59 96 -132 146
-158 79 -41 147 -53 271 -48 66 2 131 6 145 9 14 2 50 7 81 11 31 3 67 8 80
10 12 3 43 7 68 10 25 3 57 7 71 9 32 6 82 13 145 22 28 3 59 8 70 10 11 2 40
6 65 9 25 4 68 10 95 15 28 5 68 11 90 14 22 3 87 12 145 20 58 9 123 18 145
20 22 3 92 12 155 20 63 8 147 18 185 22 39 3 77 8 86 9 9 2 56 6 105 10 49 3
100 8 114 10 14 2 63 7 110 10 47 4 101 8 120 10 19 2 94 7 165 10 72 4 146 8
165 10 235 22 1107 23 1355 1 22 -2 81 -7 130 -11 50 -3 101 -8 115 -10 14 -2
50 -6 80 -10 109 -12 286 -37 325 -45 22 -5 58 -11 80 -14 23 -4 52 -9 65 -12
14 -3 43 -9 65 -14 165 -35 506 -135 590 -174 58 -27 159 -66 170 -66 7 0 20
9 30 20 15 16 16 30 10 96 -4 42 -8 84 -10 93 -1 9 -6 48 -10 86 -20 200 -88
500 -141 628 -58 139 -127 251 -191 307 -87 78 -238 153 -373 185 -76 18 -219
45 -267 50 -32 4 -71 8 -87 10 -199 25 -876 25 -1241 0 -33 -2 -112 -7 -175
-10 -63 -3 -135 -8 -160 -10 -48 -4 -139 -11 -260 -20 -41 -3 -93 -7 -115 -10
-22 -2 -71 -7 -110 -10 -38 -4 -90 -8 -115 -11 -25 -2 -63 -6 -85 -9 -22 -2
-71 -7 -110 -11 -38 -3 -81 -7 -95 -9 -14 -2 -56 -7 -95 -10 -38 -4 -81 -8
-95 -10 -14 -2 -52 -7 -85 -11 -33 -4 -71 -8 -85 -10 -14 -1 -50 -5 -80 -8
-30 -4 -89 -11 -130 -16 -41 -5 -97 -12 -125 -15 -64 -8 -103 -14 -140 -21
l-30 -6 30 23 c17 13 39 33 51 44 11 11 43 38 69 60 52 42 190 160 240 204 17
14 62 53 100 87 88 76 504 444 526 464 14 13 149 138 234 215 342 313 996 968
1256 1257 119 131 165 183 220 248 35 41 71 82 79 90 67 63 509 630 620 796
30 43 58 84 62 89 22 26 208 319 251 395 11 19 39 69 62 110 153 271 290 596
364 865 30 111 41 165 66 320 50 321 1 668 -132 930 -185 364 -562 654 -1033
795 -90 27 -134 37 -275 64 -11 2 -45 7 -75 11 -30 4 -63 9 -73 11 -151 28
-676 20 -840 -12 -16 -3 -38 -7 -50 -9 -12 -2 -41 -6 -65 -9 -62 -9 -241 -51
-347 -81 -337 -98 -646 -241 -970 -450 -370 -238 -630 -498 -772 -771 -36 -67
-89 -220 -99 -280 -16 -107 -17 -108 -59 -116 -86 -15 -322 -50 -365 -54 -25
-2 -83 -8 -130 -13 -128 -15 -243 -25 -385 -36 -44 -3 -105 -8 -135 -10 -66
-6 -150 -13 -245 -20 -38 -3 -86 -8 -105 -10 -19 -2 -60 -7 -90 -10 -30 -3
-71 -8 -90 -10 -19 -3 -55 -7 -80 -10 -417 -52 -703 -123 -860 -215 -76 -45
-158 -127 -223 -224 -84 -125 -183 -349 -238 -539 -21 -74 -21 -78 -4 -97 24
-27 30 -26 127 16 212 91 543 193 783 240 11 2 31 6 45 9 71 14 311 53 365 60
28 3 66 7 85 10 19 2 60 7 91 10 31 3 65 7 75 9 11 2 69 7 129 11 61 4 126 8
145 11 19 2 145 6 279 10 l244 7 -6 -44 c-4 -24 -9 -53 -11 -64 -3 -11 -12
-56 -21 -100 -53 -264 -152 -562 -264 -795 -258 -538 -679 -956 -1151 -1143
-131 -52 -286 -89 -465 -112 -60 -8 -332 -8 -395 -1 -97 12 -146 18 -160 21
-99 21 -160 36 -183 44 -15 6 -27 9 -27 7 0 -8 -200 74 -272 111 -150 77 -257
154 -387 278 -123 118 -246 275 -321 410 -13 22 -33 58 -45 80 -30 54 -82 173
-116 267 -46 128 -97 330 -112 448 -4 25 -9 65 -13 90 -3 25 -8 56 -9 70 -7
46 -18 304 -18 400 0 105 12 357 18 380 2 8 7 44 10 80 10 101 52 339 76 431
11 46 23 94 25 107 12 64 107 343 156 457 66 154 169 360 231 460 134 218 283
423 430 590 86 98 332 344 406 405 29 25 59 50 66 57 7 7 68 54 136 105 113
85 184 132 317 211 48 28 223 120 232 122 3 0 15 6 26 13 100 55 451 173 619
208 366 76 763 90 1064 38 437 -75 761 -313 935 -685 39 -83 63 -100 103 -73
13 8 23 18 23 22 0 4 10 18 23 32 51 57 205 238 237 280 19 25 37 47 40 50 26
26 150 205 197 285 57 98 108 253 99 303 -2 9 -7 39 -11 67 -13 91 -79 192
-175 269 -115 91 -374 174 -645 205 -55 6 -120 14 -145 17 -52 6 -686 15 -691
10z"/>
</g>
</svg>
